# Blender v2.58 (sub 0) OBJ File: 'scene.blend'
# www.blender.org
mtllib hourArrow.mtl
o HourArrow_Circle.002
v 0.000000 0.426737 0.000000
v 0.000000 -0.426737 0.000000
v -0.000000 0.394267 -0.163312
v -0.000000 -0.394267 -0.163312
v -0.000000 0.301762 -0.301762
v -0.000000 -0.301762 -0.301762
v -0.000000 0.163312 -0.394267
v -0.000000 -0.163312 -0.394267
v -0.000000 0.000000 -0.426737
v 0.000000 0.163312 0.394267
v 0.000000 -0.163312 0.394267
v 0.000000 0.301762 0.301762
v 0.000000 -0.301762 0.301762
v 0.000000 0.394267 0.163312
v 0.000000 -0.394267 0.163312
v 0.000001 0.088145 3.112848
v 0.000001 -0.088145 3.112848
v 0.000001 0.367522 2.810569
v 0.000001 -0.367522 2.810569
v 0.000001 0.073509 2.148005
v 0.000001 -0.073509 2.148005
v 0.000001 0.050683 1.827469
v 0.000001 -0.050683 1.827469
v 0.000000 0.061629 0.436719
v 0.000000 -0.061629 0.436719
v -0.000000 0.000000 0.427000
v -0.000000 0.000000 1.033629
v 0.000000 0.000000 1.571860
v 0.000000 0.000000 1.875152
v 0.000000 0.000000 2.128826
v 0.000000 0.000000 3.121813
v 0.000000 0.000000 3.445878
v 0.000000 0.044060 1.572554
v 0.000000 -0.044060 1.572554
v 0.000000 0.037437 1.034927
v 0.000000 -0.037437 1.034927
v -0.000000 0.000000 0.000131
v 0.000001 0.222171 2.648920
v 0.000001 -0.222171 2.648920
v 0.000000 0.000000 2.366976
v 0.000000 0.000000 2.863469
v 0.000000 0.111085 2.637120
v 0.000000 -0.111085 2.637120
v 0.000001 0.077532 2.247010
v 0.000001 -0.077532 2.247010
v 0.000000 0.058256 2.237420
v 0.000000 -0.058256 2.237420
v 0.000000 0.000000 2.247901
v 0.000000 0.035982 2.237612
v 0.000000 -0.035982 2.237612
v 0.050000 -0.222171 2.648920
v 0.050000 -0.077532 2.247010
v 0.050000 -0.073509 2.148005
v 0.050000 0.222171 2.648920
v 0.050000 0.077532 2.247010
v 0.050000 0.073509 2.148005
v 0.050000 0.000000 2.366976
v 0.050000 -0.111085 2.637120
v 0.050000 0.000000 2.863469
v 0.050000 0.111085 2.637120
v 0.050000 -0.367522 2.810569
v 0.050000 0.367522 2.810569
v 0.050000 0.088145 3.112848
v 0.050000 0.000000 3.445878
v 0.050000 -0.088145 3.112848
v 0.050000 -0.061629 0.436719
v 0.050000 -0.037437 1.034927
v 0.050000 0.061629 0.436719
v 0.050000 0.037437 1.034927
v 0.050000 -0.044060 1.572554
v 0.050000 0.044060 1.572554
v 0.050000 -0.050683 1.827469
v 0.050000 0.050683 1.827469
v 0.050000 -0.163312 0.394267
v 0.050000 0.163312 0.394267
v 0.050000 -0.426737 -0.000000
v 0.050000 -0.394267 0.163312
v 0.050000 0.426737 -0.000000
v 0.050000 0.394267 0.163312
v 0.050000 -0.301762 0.301762
v 0.050000 0.301762 0.301762
v 0.049999 -0.163312 -0.394267
v 0.049999 0.000000 -0.426737
v 0.049999 0.163312 -0.394267
v 0.050000 -0.301762 -0.301762
v 0.050000 0.301762 -0.301762
v 0.050000 -0.394267 -0.163312
v 0.050000 0.394267 -0.163312
v 0.050000 -0.035982 2.237612
v 0.050000 -0.058256 2.237420
v 0.050000 0.000000 2.247901
v 0.050000 0.000000 2.128826
v 0.050000 0.035982 2.237612
v 0.050000 0.058256 2.237420
v 0.050000 0.000000 3.121813
v 0.050000 0.000000 0.000131
v 0.050000 0.000000 0.427000
v 0.050000 0.000000 1.033629
v 0.050000 0.000000 1.571860
v 0.050000 0.000000 1.875152
vt 0.000000 0.000000
vt 1.000000 0.000000
vt 1.000000 1.000000
vt 0.000000 1.000000
vt 0.500000 0.000000
vt 1.000000 0.500000
vt 0.500000 0.500000
vt 0.250000 1.000000
vt 0.000000 0.750000
vt 0.750000 0.500000
vt 0.750000 0.000000
vt 1.000000 0.250000
vt 0.500000 0.250000
vt 0.875000 1.000000
vt 0.812500 0.750000
vt 0.750000 1.000000
vt 0.250000 0.184958
vt 0.000000 0.125000
vt 0.000000 0.250000
vt 65526719530706204047227624620032.000000 0.000000
vt 102040554044766162452115900858368.000000 62065763172983937519228494544896.000000
vn -1.000000 0.000007 -0.000000
vn -1.000000 -0.000007 -0.000000
vn -1.000000 0.000010 0.000000
vn -1.000000 -0.000010 0.000000
vn -1.000000 0.000011 0.000000
vn -1.000000 -0.000011 0.000000
vn -1.000000 0.000008 0.000000
vn -1.000000 -0.000008 0.000000
vn -1.000000 0.000001 0.000001
vn -1.000000 -0.000001 0.000001
vn -1.000000 0.000000 0.000001
vn -1.000000 0.000000 0.000000
vn -1.000000 -0.000003 0.000000
vn -1.000000 -0.000004 0.000003
vn -1.000000 0.000004 0.000003
vn -1.000000 0.000003 0.000000
vn -1.000000 0.000001 0.000000
vn -1.000000 -0.000001 0.000000
vn -1.000000 0.000012 -0.000004
vn -1.000000 0.000006 -0.000001
vn -1.000000 -0.000012 -0.000004
vn -1.000000 -0.000006 -0.000001
vn -1.000000 0.000002 -0.000000
vn -1.000000 -0.000002 -0.000000
vn 0.000000 -0.940923 -0.338620
vn 0.000000 -0.999176 -0.040594
vn 0.000000 0.940923 -0.338620
vn 0.000000 0.999176 -0.040594
vn 0.000000 0.924859 0.380310
vn 0.000000 0.897717 -0.440573
vn 0.000000 -0.897717 -0.440573
vn 0.000000 -0.924859 0.380310
vn 0.000000 -0.743598 -0.668627
vn 0.000000 0.743598 -0.668627
vn 0.000000 0.966712 0.255867
vn 0.000000 0.734380 0.678738
vn 0.000000 -0.734380 0.678738
vn 0.000000 -0.966712 0.255867
vn 0.000000 -0.999183 0.040407
vn 0.000000 0.999183 0.040407
vn 0.000000 -0.999924 -0.012318
vn 0.000000 0.999924 -0.012318
vn 0.000000 -0.999663 -0.025972
vn 0.000000 0.999663 -0.025972
vn 0.000001 -0.385262 0.922807
vn 0.000001 0.385262 0.922807
vn 0.000000 -0.997474 -0.071032
vn 0.000000 0.997474 -0.071032
vn 0.000000 -0.980802 0.195005
vn 0.000000 0.980802 0.195005
vn 0.000000 -0.831483 0.555551
vn 0.000000 0.831483 0.555551
vn 0.000001 -0.555552 0.831482
vn 0.000001 0.555552 0.831482
vn -0.000001 -0.195006 -0.980802
vn -0.000001 0.195006 -0.980802
vn -0.000001 -0.555551 -0.831482
vn -0.000001 0.555551 -0.831482
vn -0.000000 -0.831482 -0.555551
vn -0.000000 0.831482 -0.555551
vn -0.000000 -0.980802 -0.195006
vn -0.000000 0.980802 -0.195006
vn 1.000000 0.000002 0.000000
vn 1.000000 0.000003 0.000000
vn 1.000000 -0.000002 0.000000
vn 1.000000 -0.000003 0.000000
vn 1.000000 0.000006 0.000001
vn 1.000000 0.000012 0.000004
vn 1.000000 -0.000006 0.000001
vn 1.000000 -0.000012 0.000004
vn 1.000000 0.000001 -0.000000
vn 1.000000 -0.000001 -0.000000
vn 1.000000 0.000000 0.000000
vn 1.000000 -0.000004 -0.000003
vn 1.000000 0.000004 -0.000003
vn 1.000000 0.000001 -0.000001
vn 1.000000 -0.000001 -0.000001
vn 1.000000 0.000000 -0.000001
vn 1.000000 0.000007 -0.000000
vn 1.000000 -0.000007 -0.000000
vn 1.000000 0.000008 -0.000000
vn 1.000000 -0.000008 -0.000000
vn 1.000000 0.000011 -0.000000
vn 1.000000 -0.000011 -0.000000
vn 1.000000 0.000010 -0.000000
vn 1.000000 -0.000010 -0.000000
usemtl HourArrow
s off
f 20/1/1 22/2/1 29/3/1
f 20/1/1 29/3/1 30/4/1
f 29/1/2 23/2/2 21/3/2
f 29/1/2 21/3/2 30/4/2
f 22/1/3 33/2/3 28/3/3
f 22/1/3 28/3/3 29/4/3
f 28/1/4 34/2/4 23/3/4
f 28/1/4 23/3/4 29/4/4
f 27/1/5 28/2/5 33/3/5
f 27/1/5 33/3/5 35/4/5
f 34/1/6 28/2/6 27/3/6
f 34/1/6 27/3/6 36/4/6
f 24/1/7 26/2/7 27/3/7
f 24/1/7 27/3/7 35/4/7
f 27/1/8 26/2/8 25/3/8
f 27/1/8 25/3/8 36/4/8
f 24/1/1 37/2/1 26/3/1
f 37/1/2 25/2/2 26/3/2
f 10/1/9 37/2/9 24/3/9
f 37/1/10 11/2/10 25/3/10
f 10/1/11 12/2/11 37/3/11
f 13/1/11 11/2/11 37/3/11
f 12/1/11 14/2/11 37/3/11
f 15/1/11 13/2/11 37/3/11
f 1/1/9 37/2/9 14/3/9
f 37/1/10 2/2/10 15/3/10
f 1/1/9 3/2/9 37/3/9
f 4/1/10 2/2/10 37/3/10
f 3/1/12 5/2/12 37/3/12
f 6/1/12 4/2/12 37/3/12
f 5/1/12 7/2/12 37/3/12
f 8/1/12 6/2/12 37/3/12
f 7/1/12 9/2/12 37/3/12
f 9/1/12 8/2/12 37/3/12
f 17/1/13 32/3/13 31/2/13
f 17/1/14 31/3/14 19/2/14
f 16/1/15 18/2/15 31/3/15
f 16/1/16 31/2/16 32/3/16
f 18/1/12 38/5/12 31/4/12
f 39/6/12 19/3/12 31/4/12
f 38/5/17 42/7/17 41/8/17
f 38/5/17 41/8/17 31/4/17
f 31/4/18 41/9/18 43/7/18
f 31/4/18 43/7/18 39/6/18
f 46/10/19 38/5/19 44/11/19
f 30/3/20 46/10/20 44/11/20
f 30/3/20 44/11/20 20/2/20
f 45/12/21 39/6/21 47/13/21
f 21/2/22 45/12/22 47/13/22
f 21/2/22 47/13/22 30/1/22
f 30/3/16 48/14/16 49/15/16
f 30/3/16 49/15/16 46/10/16
f 38/5/23 46/10/23 49/15/23
f 38/5/23 49/15/23 42/7/23
f 42/7/23 49/15/23 48/14/23
f 42/7/23 48/14/23 40/16/23
f 30/1/13 47/13/13 50/17/13
f 30/1/13 50/17/13 48/18/13
f 40/19/24 48/18/24 50/17/24
f 40/19/24 50/17/24 43/7/24
f 43/7/24 50/17/24 47/13/24
f 43/7/24 47/13/24 39/6/24
f 39/12/25 45/6/25 52/13/25
f 39/12/25 52/13/25 51/20/25
f 45/2/26 21/12/26 53/13/26
f 45/2/26 53/13/26 52/1/26
f 44/10/27 38/5/27 54/11/27
f 44/10/27 54/11/27 55/21/27
f 20/3/28 44/10/28 55/11/28
f 20/3/28 55/11/28 56/2/28
f 40/19/29 43/18/29 58/17/29
f 40/19/29 58/17/29 57/7/29
f 43/4/30 41/9/30 59/7/30
f 43/4/30 59/7/30 58/6/30
f 41/5/31 42/7/31 60/8/31
f 41/5/31 60/8/31 59/4/31
f 42/7/32 40/15/32 57/14/32
f 42/7/32 57/14/32 60/16/32
f 19/6/33 39/3/33 51/4/33
f 19/6/33 51/4/33 61/1/33
f 38/1/34 18/5/34 62/4/34
f 38/1/34 62/4/34 54/1/34
f 16/1/35 32/2/35 64/3/35
f 16/1/35 64/3/35 63/4/35
f 18/1/36 16/2/36 63/3/36
f 18/1/36 63/3/36 62/4/36
f 17/1/37 19/3/37 61/2/37
f 17/1/37 61/2/37 65/4/37
f 32/1/38 17/3/38 65/2/38
f 32/1/38 65/2/38 64/4/38
f 36/1/39 25/2/39 66/3/39
f 36/1/39 66/3/39 67/4/39
f 24/1/40 35/2/40 69/3/40
f 24/1/40 69/3/40 68/4/40
f 34/1/41 36/2/41 67/3/41
f 34/1/41 67/3/41 70/4/41
f 35/1/42 33/2/42 71/3/42
f 35/1/42 71/3/42 69/4/42
f 23/1/43 34/2/43 70/3/43
f 23/1/43 70/3/43 72/4/43
f 33/1/44 22/2/44 73/3/44
f 33/1/44 73/3/44 71/4/44
f 25/1/45 11/2/45 74/3/45
f 25/1/45 74/3/45 66/4/45
f 10/1/46 24/2/46 68/3/46
f 10/1/46 68/3/46 75/4/46
f 21/1/47 23/2/47 72/3/47
f 21/1/47 72/3/47 53/4/47
f 22/1/48 20/2/48 56/3/48
f 22/1/48 56/3/48 73/4/48
f 15/1/49 2/2/49 76/3/49
f 15/1/49 76/3/49 77/4/49
f 1/1/50 14/2/50 79/3/50
f 1/1/50 79/3/50 78/4/50
f 13/1/51 15/2/51 77/3/51
f 13/1/51 77/3/51 80/4/51
f 14/1/52 12/2/52 81/3/52
f 14/1/52 81/3/52 79/4/52
f 11/1/53 13/2/53 80/3/53
f 11/1/53 80/3/53 74/4/53
f 12/1/54 10/2/54 75/3/54
f 12/1/54 75/3/54 81/4/54
f 8/1/55 9/2/55 83/3/55
f 8/1/55 83/3/55 82/4/55
f 9/1/56 7/2/56 84/3/56
f 9/1/56 84/3/56 83/4/56
f 6/1/57 8/2/57 82/3/57
f 6/1/57 82/3/57 85/4/57
f 7/1/58 5/2/58 86/3/58
f 7/1/58 86/3/58 84/4/58
f 4/1/59 6/2/59 85/3/59
f 4/1/59 85/3/59 87/4/59
f 5/1/60 3/2/60 88/3/60
f 5/1/60 88/3/60 86/4/60
f 2/1/61 4/2/61 87/3/61
f 2/1/61 87/3/61 76/4/61
f 3/1/62 1/2/62 78/3/62
f 3/1/62 78/3/62 88/4/62
f 58/7/63 51/6/63 90/13/63
f 58/7/63 90/13/63 89/17/63
f 57/19/63 58/7/63 89/17/63
f 57/19/63 89/17/63 91/18/63
f 92/1/64 91/18/64 89/17/64
f 92/1/64 89/17/64 90/13/64
f 60/7/65 57/16/65 91/14/65
f 60/7/65 91/14/65 93/15/65
f 54/5/65 60/7/65 93/15/65
f 54/5/65 93/15/65 94/10/65
f 92/3/66 94/10/66 93/15/66
f 92/3/66 93/15/66 91/14/66
f 53/2/67 92/1/67 90/13/67
f 53/2/67 90/13/67 52/12/67
f 52/12/68 90/13/68 51/6/68
f 92/3/69 56/2/69 55/11/69
f 92/3/69 55/11/69 94/10/69
f 94/10/70 55/11/70 54/5/70
f 95/4/71 51/6/71 58/7/71
f 95/4/71 58/7/71 59/9/71
f 54/5/72 95/4/72 59/8/72
f 54/5/72 59/8/72 60/7/72
f 51/6/73 95/4/73 61/3/73
f 62/1/73 95/4/73 54/5/73
f 63/1/66 64/3/66 95/2/66
f 63/1/74 95/3/74 62/2/74
f 65/1/75 61/2/75 95/3/75
f 65/1/64 95/2/64 64/3/64
f 83/1/73 96/3/73 82/2/73
f 84/1/73 96/3/73 83/2/73
f 82/1/73 96/3/73 85/2/73
f 86/1/73 96/3/73 84/2/73
f 85/1/73 96/3/73 87/2/73
f 88/1/73 96/3/73 86/2/73
f 87/1/76 96/3/76 76/2/76
f 78/1/77 96/3/77 88/2/77
f 96/1/76 77/3/76 76/2/76
f 78/1/77 79/3/77 96/2/77
f 77/1/78 96/3/78 80/2/78
f 81/1/78 96/3/78 79/2/78
f 80/1/78 96/3/78 74/2/78
f 75/1/78 96/3/78 81/2/78
f 96/1/76 66/3/76 74/2/76
f 75/1/77 68/3/77 96/2/77
f 96/1/79 97/3/79 66/2/79
f 68/1/80 97/3/80 96/2/80
f 98/1/81 67/4/81 66/3/81
f 98/1/81 66/3/81 97/2/81
f 68/1/82 69/4/82 98/3/82
f 68/1/82 98/3/82 97/2/82
f 70/1/83 67/4/83 98/3/83
f 70/1/83 98/3/83 99/2/83
f 98/1/84 69/4/84 71/3/84
f 98/1/84 71/3/84 99/2/84
f 99/1/85 100/4/85 72/3/85
f 99/1/85 72/3/85 70/2/85
f 73/1/86 100/4/86 99/3/86
f 73/1/86 99/3/86 71/2/86
f 100/1/79 92/4/79 53/3/79
f 100/1/79 53/3/79 72/2/79
f 56/1/80 92/4/80 100/3/80
f 56/1/80 100/3/80 73/2/80
