# Blender v2.58 (sub 0) OBJ File: 'scene.blend'
# www.blender.org
mtllib models/minuteArrow.mtl
o MinuteArrow
v 0.000000 0.426737 0.000000
v 0.000000 -0.426737 0.000000
v -0.000000 0.394267 -0.163312
v -0.000000 -0.394267 -0.163312
v -0.000000 0.301762 -0.301762
v -0.000000 -0.301762 -0.301762
v -0.000000 0.163312 -0.394267
v -0.000000 -0.163312 -0.394267
v -0.000000 0.000000 -0.426737
v 0.000000 0.163312 0.394267
v 0.000000 -0.163312 0.394267
v 0.000000 0.301762 0.301762
v 0.000000 -0.301762 0.301762
v 0.000000 0.394267 0.163312
v 0.000000 -0.394267 0.163312
v 0.000001 0.036300 3.849917
v 0.000001 -0.036300 3.849917
v 0.000001 0.284155 3.204345
v 0.000001 -0.284155 3.204345
v 0.000001 0.073509 2.885074
v 0.000001 -0.073509 2.885074
v 0.000001 0.050683 2.231343
v 0.000001 -0.050683 2.231343
v 0.000000 0.061629 0.436719
v 0.000000 -0.061629 0.436719
v -0.000000 0.000000 0.427000
v -0.000000 0.000000 1.033629
v 0.000000 0.000000 1.632441
v 0.000000 0.000000 2.279025
v 0.000000 0.000000 2.865895
v 0.000000 0.000000 3.858882
v 0.000000 0.000000 4.182947
v 0.000000 0.044060 1.633135
v 0.000000 -0.044060 1.633135
v 0.000000 0.037437 1.034927
v 0.000000 -0.037437 1.034927
v -0.000000 0.000000 0.000131
v 0.000001 0.050022 3.456667
v 0.000001 -0.050022 3.456667
v 0.050000 -0.050022 3.456667
v 0.050000 -0.073509 2.885074
v 0.050000 -0.284155 3.204345
v 0.050000 0.050022 3.456667
v 0.050000 0.073509 2.885074
v 0.050000 0.284155 3.204345
v 0.050000 0.036300 3.849917
v 0.050000 0.000000 4.182947
v 0.050000 -0.036300 3.849917
v 0.050000 -0.061629 0.436719
v 0.050000 -0.037437 1.034927
v 0.050000 0.061629 0.436719
v 0.050000 0.037437 1.034927
v 0.050000 -0.044060 1.633135
v 0.050000 0.044060 1.633135
v 0.050000 -0.050683 2.231343
v 0.050000 0.050683 2.231343
v 0.050000 -0.163312 0.394267
v 0.050000 0.163312 0.394267
v 0.050000 -0.426737 -0.000000
v 0.050000 -0.394267 0.163312
v 0.050000 0.426737 -0.000000
v 0.050000 0.394267 0.163312
v 0.050000 -0.301762 0.301762
v 0.050000 0.301762 0.301762
v 0.050000 -0.163312 -0.394267
v 0.050000 0.000000 -0.426737
v 0.050000 0.163312 -0.394267
v 0.050000 -0.301762 -0.301762
v 0.050000 0.301762 -0.301762
v 0.050000 -0.394267 -0.163312
v 0.050000 0.394267 -0.163312
v 0.050000 0.000000 3.858882
v 0.050000 0.000000 2.865895
v 0.050000 0.000000 0.000131
v 0.050000 0.000000 0.427000
v 0.050000 0.000000 1.033629
v 0.050000 0.000000 1.632441
v 0.050000 0.000000 2.279025
vt 0.000000 0.000000
vt 1.000000 0.000000
vt 1.000000 1.000000
vt 0.000000 1.000000
vt 0.500000 0.000000
vt 1.000000 0.500000
vn -1.000000 0.000007 -0.000000
vn -1.000000 -0.000007 -0.000000
vn -1.000000 0.000010 0.000000
vn -1.000000 -0.000010 0.000000
vn -1.000000 0.000011 0.000000
vn -1.000000 -0.000011 0.000000
vn -1.000000 0.000008 0.000000
vn -1.000000 -0.000008 0.000000
vn -1.000000 0.000001 0.000001
vn -1.000000 -0.000001 0.000001
vn -1.000000 0.000000 0.000001
vn -1.000000 0.000000 0.000000
vn -1.000000 -0.000009 0.000003
vn -1.000000 0.000009 0.000003
vn -1.000000 0.000006 0.000000
vn -1.000000 -0.000001 -0.000001
vn -1.000000 0.000005 0.000000
vn -1.000000 -0.000006 0.000000
vn -1.000000 -0.000005 0.000000
vn -1.000000 0.000001 -0.000001
vn -0.000000 -0.999157 0.041056
vn 0.000002 0.733035 -0.680191
vn -0.000000 0.999157 0.041056
vn 0.000002 -0.733035 -0.680191
vn 0.000000 0.994112 0.108358
vn -0.000001 0.933560 0.358422
vn -0.000001 -0.933560 0.358422
vn 0.000000 -0.994112 0.108358
vn 0.000000 -0.999183 0.040407
vn 0.000000 0.999183 0.040407
vn 0.000000 -0.999939 -0.011071
vn 0.000000 0.999939 -0.011071
vn 0.000001 -0.385262 0.922807
vn 0.000001 0.385262 0.922807
vn 0.000000 -0.999391 -0.034895
vn 0.000000 0.999391 -0.034895
vn 0.000000 -0.980802 0.195005
vn 0.000000 0.980802 0.195005
vn 0.000000 -0.831483 0.555551
vn 0.000000 0.831483 0.555551
vn 0.000001 -0.555552 0.831482
vn 0.000001 0.555552 0.831482
vn -0.000001 -0.195006 -0.980802
vn -0.000001 0.195006 -0.980802
vn -0.000001 -0.555551 -0.831482
vn -0.000001 0.555551 -0.831482
vn -0.000000 -0.831482 -0.555551
vn -0.000000 0.831482 -0.555551
vn -0.000000 -0.980802 -0.195006
vn -0.000000 0.980802 -0.195006
vn 1.000000 -0.000001 0.000001
vn 1.000000 0.000005 -0.000000
vn 1.000000 0.000006 -0.000000
vn 1.000000 -0.000005 -0.000000
vn 1.000000 0.000001 0.000001
vn 1.000000 -0.000006 -0.000000
vn 1.000000 -0.000008 -0.000000
vn 1.000000 -0.000009 -0.000003
vn 1.000000 0.000009 -0.000003
vn 1.000000 0.000008 -0.000000
vn 1.000000 0.000000 -0.000000
vn 1.000000 0.000001 -0.000001
vn 1.000000 -0.000001 -0.000001
vn 1.000000 0.000000 -0.000001
vn 1.000000 0.000007 -0.000000
vn 1.000000 -0.000007 -0.000000
vn 1.000000 0.000011 -0.000000
vn 1.000000 -0.000011 -0.000000
vn 1.000000 0.000010 -0.000000
vn 1.000000 -0.000010 -0.000000
usemtl MinuteArrow
s off
f 20/1/1 22/2/1 29/3/1
f 20/1/1 29/3/1 30/4/1
f 29/1/2 23/2/2 21/3/2
f 29/1/2 21/3/2 30/4/2
f 22/1/3 33/2/3 28/3/3
f 22/1/3 28/3/3 29/4/3
f 28/1/4 34/2/4 23/3/4
f 28/1/4 23/3/4 29/4/4
f 27/1/5 28/2/5 33/3/5
f 27/1/5 33/3/5 35/4/5
f 34/1/6 28/2/6 27/3/6
f 34/1/6 27/3/6 36/4/6
f 24/1/7 26/2/7 27/3/7
f 24/1/7 27/3/7 35/4/7
f 27/1/8 26/2/8 25/3/8
f 27/1/8 25/3/8 36/4/8
f 24/1/1 37/2/1 26/3/1
f 37/1/2 25/2/2 26/3/2
f 10/1/9 37/2/9 24/3/9
f 37/1/10 11/2/10 25/3/10
f 10/1/11 12/2/11 37/3/11
f 13/1/11 11/2/11 37/3/11
f 12/1/11 14/2/11 37/3/11
f 15/1/11 13/2/11 37/3/11
f 1/1/9 37/2/9 14/3/9
f 37/1/10 2/2/10 15/3/10
f 1/1/9 3/2/9 37/3/9
f 4/1/10 2/2/10 37/3/10
f 3/1/12 5/2/12 37/3/12
f 6/1/12 4/2/12 37/3/12
f 5/1/12 7/2/12 37/3/12
f 8/1/12 6/2/12 37/3/12
f 7/1/12 9/2/12 37/3/12
f 9/1/12 8/2/12 37/3/12
f 17/1/8 32/3/8 31/2/8
f 17/1/13 31/3/13 19/2/13
f 16/1/14 18/2/14 31/3/14
f 16/1/7 31/2/7 32/3/7
f 38/5/15 30/3/15 31/4/15
f 18/1/16 38/5/16 31/4/16
f 38/5/17 20/2/17 30/3/17
f 39/6/18 31/4/18 30/1/18
f 21/2/19 39/6/19 30/1/19
f 39/6/20 19/3/20 31/4/20
f 39/2/21 21/6/21 41/1/21
f 39/2/21 41/1/21 40/1/21
f 19/6/22 39/3/22 40/4/22
f 19/6/22 40/4/22 42/1/22
f 20/5/23 38/2/23 43/3/23
f 20/5/23 43/3/23 44/1/23
f 38/1/24 18/5/24 45/4/24
f 38/1/24 45/4/24 43/1/24
f 16/1/25 32/2/25 47/3/25
f 16/1/25 47/3/25 46/4/25
f 18/1/26 16/2/26 46/3/26
f 18/1/26 46/3/26 45/4/26
f 17/1/27 19/3/27 42/2/27
f 17/1/27 42/2/27 48/4/27
f 32/1/28 17/3/28 48/2/28
f 32/1/28 48/2/28 47/4/28
f 36/1/29 25/2/29 49/3/29
f 36/1/29 49/3/29 50/4/29
f 24/1/30 35/2/30 52/3/30
f 24/1/30 52/3/30 51/4/30
f 34/1/31 36/2/31 50/3/31
f 34/1/31 50/3/31 53/4/31
f 35/1/32 33/2/32 54/3/32
f 35/1/32 54/3/32 52/4/32
f 23/1/31 34/2/31 53/3/31
f 23/1/31 53/3/31 55/4/31
f 33/1/32 22/2/32 56/3/32
f 33/1/32 56/3/32 54/4/32
f 25/1/33 11/2/33 57/3/33
f 25/1/33 57/3/33 49/4/33
f 10/1/34 24/2/34 51/3/34
f 10/1/34 51/3/34 58/4/34
f 21/1/35 23/2/35 55/3/35
f 21/1/35 55/3/35 41/4/35
f 22/1/36 20/2/36 44/3/36
f 22/1/36 44/3/36 56/4/36
f 15/1/37 2/2/37 59/3/37
f 15/1/37 59/3/37 60/4/37
f 1/1/38 14/2/38 62/3/38
f 1/1/38 62/3/38 61/4/38
f 13/1/39 15/2/39 60/3/39
f 13/1/39 60/3/39 63/4/39
f 14/1/40 12/2/40 64/3/40
f 14/1/40 64/3/40 62/4/40
f 11/1/41 13/2/41 63/3/41
f 11/1/41 63/3/41 57/4/41
f 12/1/42 10/2/42 58/3/42
f 12/1/42 58/3/42 64/4/42
f 8/1/43 9/2/43 66/3/43
f 8/1/43 66/3/43 65/4/43
f 9/1/44 7/2/44 67/3/44
f 9/1/44 67/3/44 66/4/44
f 6/1/45 8/2/45 65/3/45
f 6/1/45 65/3/45 68/4/45
f 7/1/46 5/2/46 69/3/46
f 7/1/46 69/3/46 67/4/46
f 4/1/47 6/2/47 68/3/47
f 4/1/47 68/3/47 70/4/47
f 5/1/48 3/2/48 71/3/48
f 5/1/48 71/3/48 69/4/48
f 2/1/49 4/2/49 70/3/49
f 2/1/49 70/3/49 59/4/49
f 3/1/50 1/2/50 61/3/50
f 3/1/50 61/3/50 71/4/50
f 40/6/51 72/4/51 42/3/51
f 41/2/52 73/1/52 40/6/52
f 40/6/53 73/1/53 72/4/53
f 43/5/54 73/3/54 44/2/54
f 45/1/55 72/4/55 43/5/55
f 43/5/56 72/4/56 73/3/56
f 46/1/57 47/3/57 72/2/57
f 46/1/58 72/3/58 45/2/58
f 48/1/59 42/2/59 72/3/59
f 48/1/60 72/2/60 47/3/60
f 66/1/61 74/3/61 65/2/61
f 67/1/61 74/3/61 66/2/61
f 65/1/61 74/3/61 68/2/61
f 69/1/61 74/3/61 67/2/61
f 68/1/61 74/3/61 70/2/61
f 71/1/61 74/3/61 69/2/61
f 70/1/62 74/3/62 59/2/62
f 61/1/63 74/3/63 71/2/63
f 74/1/62 60/3/62 59/2/62
f 61/1/63 62/3/63 74/2/63
f 60/1/64 74/3/64 63/2/64
f 64/1/64 74/3/64 62/2/64
f 63/1/64 74/3/64 57/2/64
f 58/1/64 74/3/64 64/2/64
f 74/1/62 49/3/62 57/2/62
f 58/1/63 51/3/63 74/2/63
f 74/1/65 75/3/65 49/2/65
f 51/1/66 75/3/66 74/2/66
f 76/1/60 50/4/60 49/3/60
f 76/1/60 49/3/60 75/2/60
f 51/1/57 52/4/57 76/3/57
f 51/1/57 76/3/57 75/2/57
f 53/1/67 50/4/67 76/3/67
f 53/1/67 76/3/67 77/2/67
f 76/1/68 52/4/68 54/3/68
f 76/1/68 54/3/68 77/2/68
f 77/1/69 78/4/69 55/3/69
f 77/1/69 55/3/69 53/2/69
f 56/1/70 78/4/70 77/3/70
f 56/1/70 77/3/70 54/2/70
f 78/1/65 73/4/65 41/3/65
f 78/1/65 41/3/65 55/2/65
f 44/1/66 73/4/66 78/3/66
f 44/1/66 78/3/66 56/2/66
