# Blender v2.58 (sub 0) OBJ File: 'scene.blend'
# www.blender.org
mtllib models/secondArrow.mtl
o Cone
v 0.000000 0.025000 0.000000
v 0.009567 0.023097 0.000000
v 0.017678 0.017678 0.000000
v 0.023097 0.009567 0.000000
v 0.025000 -0.000000 0.000000
v 0.023097 -0.009567 0.000000
v 0.017678 -0.017678 0.000000
v 0.009567 -0.023097 0.000000
v 0.000000 -0.025000 0.000000
v -0.009567 -0.023097 0.000000
v -0.017678 -0.017678 0.000000
v -0.023097 -0.009567 0.000000
v -0.025000 0.000000 0.000000
v -0.023097 0.009567 0.000000
v -0.017678 0.017678 0.000000
v -0.009567 0.023097 0.000000
v 0.000000 0.000000 5.500000
v 0.000000 0.000000 0.000000
vt 0.238013 37.870468
vt 0.224909 37.870197
vt 0.280861 0.000000
vt 0.065868 37.870647
vt 0.187594 0.000237
vt 0.224909 0.000499
vt 0.131748 0.000062
vt 0.065874 0.000000
vt 0.000000 0.000062
vt 0.612026 37.870617
vt 0.606494 0.000004
vt 0.662340 0.000000
vt 0.569179 0.000152
vt 0.556075 0.000421
vt 0.569177 0.000770
vt 0.513227 0.000000
vt 0.518761 37.869469
vt 0.556075 37.869846
vt 0.462917 37.869122
vt 0.397043 37.868858
vt 0.331169 37.869125
vt 0.397043 37.868862
vt 0.275324 37.869473
vt 0.238011 37.869846
vt 0.831170 0.168830
vt 0.735536 0.025703
vt 0.797588 0.000000
vt 0.864752 0.000000
vt 0.926805 0.025703
vt 0.974297 0.073195
vt 1.000000 0.135248
vt 1.000000 0.202412
vt 0.974297 0.264464
vt 0.926805 0.311957
vt 0.864752 0.337660
vt 0.797588 0.337660
vt 0.735536 0.311957
vt 0.688043 0.264464
vt 0.662340 0.202412
vt 0.662340 0.135248
vt 0.688043 0.073195
vn 0.195088 0.980775 0.004458
vn 0.555565 0.831461 0.004458
vn 0.831461 0.555565 0.004458
vn 0.980775 0.195088 0.004458
vn 0.980776 -0.195088 0.004458
vn 0.831461 -0.555565 0.004458
vn 0.555565 -0.831461 0.004458
vn 0.195088 -0.980775 0.004458
vn -0.195088 -0.980776 0.004458
vn -0.555565 -0.831461 0.004458
vn -0.831461 -0.555565 0.004458
vn -0.980776 -0.195088 0.004458
vn -0.980775 0.195089 0.004458
vn -0.831461 0.555565 0.004458
vn -0.555564 0.831462 0.004458
vn -0.195088 0.980776 0.004458
vn -0.000000 -0.000000 -1.000000
usemtl SecondArrow
s off
f 2/1/1 1/2/1 17/3/1
f 17/4/2 3/5/2 2/6/2
f 17/4/3 4/7/3 3/5/3
f 17/4/4 5/8/4 4/7/4
f 17/4/5 6/9/5 5/8/5
f 17/10/6 7/11/6 6/12/6
f 17/10/7 8/13/7 7/11/7
f 17/10/8 9/14/8 8/13/8
f 17/10/9 10/15/9 9/14/9
f 17/16/10 11/17/10 10/18/10
f 17/16/11 12/19/11 11/17/11
f 17/16/12 13/20/12 12/19/12
f 17/3/13 14/21/13 13/22/13
f 17/3/14 15/23/14 14/21/14
f 17/3/15 16/24/15 15/23/15
f 17/3/16 1/2/16 16/24/16
f 18/25/17 1/26/17 2/27/17
f 18/25/17 2/27/17 3/28/17
f 18/25/17 3/28/17 4/29/17
f 18/25/17 4/29/17 5/30/17
f 18/25/17 5/30/17 6/31/17
f 18/25/17 6/31/17 7/32/17
f 18/25/17 7/32/17 8/33/17
f 18/25/17 8/33/17 9/34/17
f 18/25/17 9/34/17 10/35/17
f 18/25/17 10/35/17 11/36/17
f 18/25/17 11/36/17 12/37/17
f 18/25/17 12/37/17 13/38/17
f 18/25/17 13/38/17 14/39/17
f 18/25/17 14/39/17 15/40/17
f 18/25/17 15/40/17 16/41/17
f 16/41/17 1/26/17 18/25/17
